<svg xmlns="http://www.w3.org/2000/svg" viewBox="0 0 980 585" font-family="'Hiragino Kaku Gothic ProN','Yu Gothic',Meiryo,'Segoe UI',sans-serif">
<defs><marker id="arr" markerWidth="9" markerHeight="9" refX="7" refY="4.5" orient="auto"><path d="M0,0 L8,4.5 L0,9 z" fill="#6C7671"/></marker></defs>
<rect width="980" height="585" fill="#FBFBF9"/>
<rect x="20" y="20" width="940" height="270" rx="12" fill="none" stroke="#C9CFC9"/>
<text x="40" y="52" font-size="17" fill="#0072B2" text-anchor="start" font-family="'Hiragino Kaku Gothic ProN','Yu Gothic',Meiryo,'Segoe UI',sans-serif" font-weight="700">1. Teach — just store, never train</text>
<g><rect x="58" y="106" width="110" height="90" rx="6" fill="#FFFFFF" stroke="#C9CFC9"/><rect x="72" y="124" width="82" height="54" rx="8" fill="#E7EBE7" stroke="#B7BFB7"/><circle cx="88" cy="151.0" r="6" fill="#FFFFFF" stroke="#B7BFB7"/><circle cx="138" cy="151.0" r="6" fill="#FFFFFF" stroke="#B7BFB7"/></g>
<rect x="50" y="98" width="110" height="90" rx="6" fill="#FFFFFF" stroke="#C9CFC9"/>
<g><rect x="42" y="90" width="110" height="90" rx="6" fill="#FFFFFF" stroke="#C9CFC9"/><rect x="56" y="108" width="82" height="54" rx="8" fill="#E7EBE7" stroke="#B7BFB7"/><circle cx="72" cy="135.0" r="6" fill="#FFFFFF" stroke="#B7BFB7"/><circle cx="122" cy="135.0" r="6" fill="#FFFFFF" stroke="#B7BFB7"/></g>
<text x="97" y="216" font-size="12" fill="#6C7671" text-anchor="middle" font-family="'Hiragino Kaku Gothic ProN','Yu Gothic',Meiryo,'Segoe UI',sans-serif">OK images (a few dozen+)</text>
<line x1="172" y1="135" x2="218" y2="135" stroke="#6C7671" stroke-width="2" marker-end="url(#arr)"/>
<g><rect x="228" y="90" width="110" height="90" rx="6" fill="#FFFFFF" stroke="#C9CFC9"/><rect x="242" y="108" width="82" height="54" rx="8" fill="#E7EBE7" stroke="#B7BFB7"/><circle cx="258" cy="135.0" r="6" fill="#FFFFFF" stroke="#B7BFB7"/><circle cx="308" cy="135.0" r="6" fill="#FFFFFF" stroke="#B7BFB7"/><line x1="256" y1="90" x2="256" y2="180" stroke="#0072B2" stroke-width="1" opacity="0.55"/><line x1="228" y1="112" x2="338" y2="112" stroke="#0072B2" stroke-width="1" opacity="0.55"/><line x1="283" y1="90" x2="283" y2="180" stroke="#0072B2" stroke-width="1" opacity="0.55"/><line x1="228" y1="135" x2="338" y2="135" stroke="#0072B2" stroke-width="1" opacity="0.55"/><line x1="310" y1="90" x2="310" y2="180" stroke="#0072B2" stroke-width="1" opacity="0.55"/><line x1="228" y1="158" x2="338" y2="158" stroke="#0072B2" stroke-width="1" opacity="0.55"/></g>
<text x="283" y="216" font-size="12" fill="#6C7671" text-anchor="middle" font-family="'Hiragino Kaku Gothic ProN','Yu Gothic',Meiryo,'Segoe UI',sans-serif">Split into patches</text>
<text x="283" y="232" font-size="11" fill="#6C7671" text-anchor="middle" font-family="'Hiragino Kaku Gothic ProN','Yu Gothic',Meiryo,'Segoe UI',sans-serif">14px grid</text>
<line x1="358" y1="135" x2="404" y2="135" stroke="#6C7671" stroke-width="2" marker-end="url(#arr)"/>
<rect x="414" y="96" width="120" height="78" rx="10" fill="#FFFFFF" stroke="#2B3330" stroke-width="1.6"/>
<circle cx="446" cy="128" r="14" fill="#D6E8F5" stroke="#0072B2" stroke-width="2"/>
<circle cx="446" cy="128" r="5.5" fill="#0072B2"/>
<text x="494" y="124" font-size="14" fill="#2B3330" text-anchor="middle" font-family="'Hiragino Kaku Gothic ProN','Yu Gothic',Meiryo,'Segoe UI',sans-serif" font-weight="700">DINOv2</text>
<text x="494" y="142" font-size="10" fill="#2B3330" text-anchor="middle" font-family="'Hiragino Kaku Gothic ProN','Yu Gothic',Meiryo,'Segoe UI',sans-serif"></text>
<text x="474" y="216" font-size="12" fill="#6C7671" text-anchor="middle" font-family="'Hiragino Kaku Gothic ProN','Yu Gothic',Meiryo,'Segoe UI',sans-serif">DINOv2 (frozen)</text>
<text x="474" y="232" font-size="11" fill="#6C7671" text-anchor="middle" font-family="'Hiragino Kaku Gothic ProN','Yu Gothic',Meiryo,'Segoe UI',sans-serif">1 patch = 768-dim feature</text>
<line x1="538" y1="135" x2="574" y2="135" stroke="#6C7671" stroke-width="2" marker-end="url(#arr)"/>
<g><rect x="582" y="112" width="64" height="10" rx="2" fill="#FFFFFF" stroke="#C9CFC9"/><rect x="585.0" y="114.5" width="3.4" height="5" fill="#0072B2" opacity="0.85"/><rect x="591.8" y="115.5" width="3.4" height="3" fill="#0072B2" opacity="0.85"/><rect x="598.6" y="114.5" width="3.4" height="5" fill="#0072B2" opacity="0.85"/><rect x="605.4" y="113.5" width="3.4" height="7" fill="#0072B2" opacity="0.85"/><rect x="612.2" y="115.5" width="3.4" height="3" fill="#0072B2" opacity="0.85"/><rect x="619.0" y="115.5" width="3.4" height="3" fill="#0072B2" opacity="0.85"/><rect x="625.8" y="113.5" width="3.4" height="7" fill="#0072B2" opacity="0.85"/><rect x="632.6" y="115.5" width="3.4" height="3" fill="#0072B2" opacity="0.85"/><rect x="639.4" y="114.5" width="3.4" height="5" fill="#0072B2" opacity="0.85"/><rect x="582" y="128" width="64" height="10" rx="2" fill="#FFFFFF" stroke="#C9CFC9"/><rect x="585.0" y="131.5" width="3.4" height="3" fill="#0072B2" opacity="0.85"/><rect x="591.8" y="130.5" width="3.4" height="5" fill="#0072B2" opacity="0.85"/><rect x="598.6" y="130.5" width="3.4" height="5" fill="#0072B2" opacity="0.85"/><rect x="605.4" y="131.5" width="3.4" height="3" fill="#0072B2" opacity="0.85"/><rect x="612.2" y="131.5" width="3.4" height="3" fill="#0072B2" opacity="0.85"/><rect x="619.0" y="129.5" width="3.4" height="7" fill="#0072B2" opacity="0.85"/><rect x="625.8" y="131.5" width="3.4" height="3" fill="#0072B2" opacity="0.85"/><rect x="632.6" y="131.5" width="3.4" height="3" fill="#0072B2" opacity="0.85"/><rect x="639.4" y="131.5" width="3.4" height="3" fill="#0072B2" opacity="0.85"/><rect x="582" y="144" width="64" height="10" rx="2" fill="#FFFFFF" stroke="#C9CFC9"/><rect x="585.0" y="146.5" width="3.4" height="5" fill="#0072B2" opacity="0.85"/><rect x="591.8" y="145.5" width="3.4" height="7" fill="#0072B2" opacity="0.85"/><rect x="598.6" y="146.5" width="3.4" height="5" fill="#0072B2" opacity="0.85"/><rect x="605.4" y="146.5" width="3.4" height="5" fill="#0072B2" opacity="0.85"/><rect x="612.2" y="147.5" width="3.4" height="3" fill="#0072B2" opacity="0.85"/><rect x="619.0" y="147.5" width="3.4" height="3" fill="#0072B2" opacity="0.85"/><rect x="625.8" y="145.5" width="3.4" height="7" fill="#0072B2" opacity="0.85"/><rect x="632.6" y="147.5" width="3.4" height="3" fill="#0072B2" opacity="0.85"/><rect x="639.4" y="146.5" width="3.4" height="5" fill="#0072B2" opacity="0.85"/></g>
<line x1="654" y1="135" x2="700" y2="135" stroke="#6C7671" stroke-width="2" marker-end="url(#arr)"/>
<text x="676" y="160" font-size="9.5" fill="#6C7671" text-anchor="middle" font-family="'Hiragino Kaku Gothic ProN','Yu Gothic',Meiryo,'Segoe UI',sans-serif">sec / image</text>
<g><path d="M712,92 v90 a75.0,14 0 0 0 150,0 v-90" fill="#FFFFFF" stroke="#2B3330" stroke-width="1.6"/><ellipse cx="787.0" cy="92" rx="75.0" ry="14" fill="#FFFFFF" stroke="#2B3330" stroke-width="1.6"/><rect x="722" y="98.0" width="130" height="26.666666666666668" rx="4" fill="#D6E8F5" stroke="#0072B2" stroke-width="1"/><text x="787.0" y="115.33333333333333" font-size="11" fill="#2B3330" text-anchor="middle" font-family="'Hiragino Kaku Gothic ProN','Yu Gothic',Meiryo,'Segoe UI',sans-serif">○ normal: OK memory</text><rect x="722" y="126.66666666666667" width="130" height="26.666666666666668" rx="4" fill="#F9E4D4" stroke="#D55E00" stroke-width="1"/><text x="787.0" y="144.0" font-size="11" fill="#2B3330" text-anchor="middle" font-family="'Hiragino Kaku Gothic ProN','Yu Gothic',Meiryo,'Segoe UI',sans-serif">△ critical: defects</text><rect x="722" y="155.33333333333334" width="130" height="26.666666666666668" rx="4" fill="#EDEFED" stroke="#6C7671" stroke-width="1"/><text x="787.0" y="172.66666666666669" font-size="11" fill="#2B3330" text-anchor="middle" font-family="'Hiragino Kaku Gothic ProN','Yu Gothic',Meiryo,'Segoe UI',sans-serif">▽ negative: harmless</text></g>
<text x="787" y="226" font-size="13" fill="#2B3330" text-anchor="middle" font-family="'Hiragino Kaku Gothic ProN','Yu Gothic',Meiryo,'Segoe UI',sans-serif" font-weight="700">Memory bank</text>
<text x="787" y="243" font-size="11" fill="#6C7671" text-anchor="middle" font-family="'Hiragino Kaku Gothic ProN','Yu Gothic',Meiryo,'Segoe UI',sans-serif">stored as memory</text>
<rect x="20" y="310" width="940" height="250" rx="12" fill="none" stroke="#C9CFC9"/>
<text x="40" y="342" font-size="17" fill="#D55E00" text-anchor="start" font-family="'Hiragino Kaku Gothic ProN','Yu Gothic',Meiryo,'Segoe UI',sans-serif" font-weight="700">2. Inspect — score by distance to memory</text>
<g><rect x="42" y="386" width="110" height="90" rx="6" fill="#FFFFFF" stroke="#C9CFC9"/><rect x="56" y="404" width="82" height="54" rx="8" fill="#E7EBE7" stroke="#B7BFB7"/><circle cx="72" cy="431.0" r="6" fill="#FFFFFF" stroke="#B7BFB7"/><circle cx="122" cy="431.0" r="6" fill="#FFFFFF" stroke="#B7BFB7"/><circle cx="114" cy="418" r="4.5" fill="#D55E00"/><line x1="70" y1="386" x2="70" y2="476" stroke="#0072B2" stroke-width="1" opacity="0.55"/><line x1="42" y1="408" x2="152" y2="408" stroke="#0072B2" stroke-width="1" opacity="0.55"/><line x1="97" y1="386" x2="97" y2="476" stroke="#0072B2" stroke-width="1" opacity="0.55"/><line x1="42" y1="431" x2="152" y2="431" stroke="#0072B2" stroke-width="1" opacity="0.55"/><line x1="124" y1="386" x2="124" y2="476" stroke="#0072B2" stroke-width="1" opacity="0.55"/><line x1="42" y1="454" x2="152" y2="454" stroke="#0072B2" stroke-width="1" opacity="0.55"/></g>
<text x="97" y="512" font-size="12" fill="#6C7671" text-anchor="middle" font-family="'Hiragino Kaku Gothic ProN','Yu Gothic',Meiryo,'Segoe UI',sans-serif">Inspection image</text>
<line x1="160" y1="431" x2="200" y2="431" stroke="#6C7671" stroke-width="2" marker-end="url(#arr)"/>
<rect x="210" y="376" width="215" height="110" rx="10" fill="#FFFFFF" stroke="#C9CFC9"/>
<path d="M352,398 v46 a26,8 0 0 0 52,0 v-46" fill="#FFFFFF" stroke="#2B3330" stroke-width="1.4"/>
<ellipse cx="378" cy="398" rx="26" ry="8" fill="#FFFFFF" stroke="#2B3330" stroke-width="1.4"/>
<rect x="358" y="404" width="40" height="10" rx="3" fill="#D6E8F5" stroke="#0072B2"/>
<rect x="358" y="418" width="40" height="10" rx="3" fill="#F9E4D4" stroke="#D55E00"/>
<rect x="358" y="432" width="40" height="10" rx="3" fill="#EDEFED" stroke="#6C7671"/>
<rect x="228" y="398" width="18" height="18" rx="3" fill="#D6E8F5" stroke="#0072B2" stroke-width="1.5"/>
<line x1="246" y1="407" x2="352" y2="410" stroke="#0072B2" stroke-width="1.6" stroke-dasharray="4 3"/>
<rect x="228" y="444" width="18" height="18" rx="3" fill="#F9E4D4" stroke="#D55E00" stroke-width="1.5"/>
<path d="M246,453 C300,470 330,466 356,440" fill="none" stroke="#D55E00" stroke-width="1.8" stroke-dasharray="4 3"/>
<text x="300" y="396" font-size="10.5" fill="#0072B2" text-anchor="middle" font-family="'Hiragino Kaku Gothic ProN','Yu Gothic',Meiryo,'Segoe UI',sans-serif">near = as usual</text>
<text x="300" y="480" font-size="10.5" fill="#D55E00" text-anchor="middle" font-family="'Hiragino Kaku Gothic ProN','Yu Gothic',Meiryo,'Segoe UI',sans-serif" font-weight="700">far from OK = NG!</text>
<text x="317" y="512" font-size="12" fill="#6C7671" text-anchor="middle" font-family="'Hiragino Kaku Gothic ProN','Yu Gothic',Meiryo,'Segoe UI',sans-serif">Measure each patch's distance</text>
<text x="317" y="528" font-size="12" fill="#6C7671" text-anchor="middle" font-family="'Hiragino Kaku Gothic ProN','Yu Gothic',Meiryo,'Segoe UI',sans-serif">to the memory (k-NN)</text>
<line x1="435" y1="431" x2="475" y2="431" stroke="#6C7671" stroke-width="2" marker-end="url(#arr)"/>
<g><rect x="485" y="386" width="110" height="90" rx="6" fill="#FFFFFF" stroke="#C9CFC9"/><rect x="499" y="404" width="82" height="54" rx="8" fill="#E7EBE7" stroke="#B7BFB7"/><circle cx="515" cy="431.0" r="6" fill="#FFFFFF" stroke="#B7BFB7"/><circle cx="565" cy="431.0" r="6" fill="#FFFFFF" stroke="#B7BFB7"/><circle cx="557" cy="418" r="17" fill="#D55E00" opacity="0.28"/><circle cx="557" cy="418" r="10" fill="#D55E00" opacity="0.55"/><circle cx="557" cy="418" r="4.5" fill="#D55E00"/></g>
<text x="540" y="512" font-size="12" fill="#2B3330" text-anchor="middle" font-family="'Hiragino Kaku Gothic ProN','Yu Gothic',Meiryo,'Segoe UI',sans-serif" font-weight="700">Heatmap</text>
<text x="540" y="528" font-size="11" fill="#6C7671" text-anchor="middle" font-family="'Hiragino Kaku Gothic ProN','Yu Gothic',Meiryo,'Segoe UI',sans-serif">distance drawn as color</text>
<line x1="605" y1="431" x2="645" y2="431" stroke="#6C7671" stroke-width="2" marker-end="url(#arr)"/>
<rect x="655" y="376" width="150" height="110" rx="10" fill="#FFFFFF" stroke="#C9CFC9"/>
<rect x="670" y="424" width="74" height="14" rx="7" fill="#D6E8F5" stroke="#0072B2"/>
<rect x="744" y="424" width="46" height="14" rx="7" fill="#F9E4D4" stroke="#D55E00"/>
<line x1="744" y1="410" x2="744" y2="452" stroke="#2B3330" stroke-width="2.5" stroke-dasharray="3 2"/>
<text x="730" y="402" font-size="11.5" fill="#2B3330" text-anchor="middle" font-family="'Hiragino Kaku Gothic ProN','Yu Gothic',Meiryo,'Segoe UI',sans-serif" font-weight="700">Threshold</text>
<text x="730" y="468" font-size="10" fill="#6C7671" text-anchor="middle" font-family="'Hiragino Kaku Gothic ProN','Yu Gothic',Meiryo,'Segoe UI',sans-serif">(from the separation check)</text>
<text x="730" y="512" font-size="11" fill="#2B3330" text-anchor="middle" font-family="'Hiragino Kaku Gothic ProN','Yu Gothic',Meiryo,'Segoe UI',sans-serif"></text>
<line x1="805" y1="431" x2="840" y2="431" stroke="#6C7671" stroke-width="2" marker-end="url(#arr)"/>
<rect x="850" y="384" width="92" height="40" rx="20" fill="#D6E8F5" stroke="#0072B2" stroke-width="2"/>
<text x="896" y="410" font-size="16" fill="#0072B2" text-anchor="middle" font-family="'Hiragino Kaku Gothic ProN','Yu Gothic',Meiryo,'Segoe UI',sans-serif" font-weight="700">○ OK</text>
<rect x="850" y="438" width="92" height="40" rx="20" fill="#F9E4D4" stroke="#D55E00" stroke-width="2"/>
<text x="896" y="464" font-size="16" fill="#D55E00" text-anchor="middle" font-family="'Hiragino Kaku Gothic ProN','Yu Gothic',Meiryo,'Segoe UI',sans-serif" font-weight="700">△ NG</text>
<text x="896" y="496" font-size="10.5" fill="#6C7671" text-anchor="middle" font-family="'Hiragino Kaku Gothic ProN','Yu Gothic',Meiryo,'Segoe UI',sans-serif">with evidence</text>
<path d="M900,180 C960,260 620,300 432,392" fill="none" stroke="#6C7671" stroke-width="1.6" stroke-dasharray="6 4" marker-end="url(#arr)"/>
</svg>